HIERARCHY
ROOT Hips
{
    OFFSET 0.000000 0.000000 0.000000
    CHANNELS 6 Xposition Yposition Zposition Zrotation Xrotation Yrotation
    JOINT Spine
    {
        OFFSET -0.000000 7.979263 0.000000
        CHANNELS 3 Zrotation Xrotation Yrotation
        JOINT Spine1
        {
            OFFSET -0.000000 24.719021 0.000000
            CHANNELS 3 Zrotation Xrotation Yrotation
            JOINT Neck
            {
                OFFSET -0.000000 24.617504 2.237955
                CHANNELS 3 Zrotation Xrotation Yrotation
                JOINT Head
                {
                    OFFSET -0.000000 13.623132 -1.946162
                    CHANNELS 3 Zrotation Xrotation Yrotation
                    End Site
                    {
                        OFFSET -0.000000 24.327021 0.000000
                    }
                }
            }
            JOINT LeftShoulder
            {
                OFFSET 3.885773 23.018444 -0.302444
                CHANNELS 3 Zrotation Xrotation Yrotation
                JOINT LeftArm
                {
                    OFFSET 10.447750 0.000000 0.000000
                    CHANNELS 3 Zrotation Xrotation Yrotation
                    JOINT LeftForeArm
                    {
                        OFFSET 29.090096 0.000000 0.000000
                        CHANNELS 3 Zrotation Xrotation Yrotation
                        JOINT LeftHand
                        {
                            OFFSET 28.893339 0.000000 0.000000
                            CHANNELS 3 Zrotation Xrotation Yrotation
                            End Site
                            {
                                OFFSET 14.596213 0.000000 0.000000
                            }
                        }
                    }
                }
            }
            JOINT RightShoulder
            {
                OFFSET -3.864586 23.018444 -0.302444
                CHANNELS 3 Zrotation Xrotation Yrotation
                JOINT RightArm
                {
                    OFFSET -10.447750 0.000000 0.000000
                    CHANNELS 3 Zrotation Xrotation Yrotation
                    JOINT RightForeArm
                    {
                        OFFSET -29.090096 0.000000 0.000000
                        CHANNELS 3 Zrotation Xrotation Yrotation
                        JOINT RightHand
                        {
                            OFFSET -28.893339 0.000000 0.000000
                            CHANNELS 3 Zrotation Xrotation Yrotation
                            End Site
                            {
                                OFFSET -14.596213 0.000000 0.000000
                            }
                        }
                    }
                }
            }
        }
    }
    JOINT LeftUpLeg
    {
        OFFSET 9.730808 0.000000 0.000000
        CHANNELS 3 Zrotation Xrotation Yrotation
        JOINT LeftLeg
        {
            OFFSET -0.000000 -34.800129 0.000000
            CHANNELS 3 Zrotation Xrotation Yrotation
            JOINT LeftFoot
            {
                OFFSET -0.000000 -44.597416 0.000000
                CHANNELS 3 Zrotation Xrotation Yrotation
                JOINT LeftToeBase
                {
                    OFFSET -0.000000 -6.325025 14.596213
                    CHANNELS 3 Zrotation Xrotation Yrotation
                    End Site
                    {
                        OFFSET -0.000000 0.000000 3.892323
                    }
                }
            }
        }
    }
    JOINT RightUpLeg
    {
        OFFSET -9.730808 0.000000 0.000000
        CHANNELS 3 Zrotation Xrotation Yrotation
        JOINT RightLeg
        {
            OFFSET -0.000000 -34.800129 0.000000
            CHANNELS 3 Zrotation Xrotation Yrotation
            JOINT RightFoot
            {
                OFFSET -0.000000 -44.597416 0.000000
                CHANNELS 3 Zrotation Xrotation Yrotation
                JOINT RightToeBase
                {
                    OFFSET -0.000000 -6.325025 14.596213
                    CHANNELS 3 Zrotation Xrotation Yrotation
                    End Site
                    {
                        OFFSET -0.000000 0.000000 3.892323
                    }
                }
            }
        }
    }
}
MOTION
Frames:    14
Frame Time:    0.008333
-19.892284    85.265175    39.371586    1.348614    1.044918    90.299515    -0.403453    -7.512325    -0.999949    -0.036124    -1.918121    -0.974090    -0.299854    19.279245    2.489487    2.716587    7.791513    2.788170    14.225247    0.587413    -11.555938    -17.543360    2.993319    8.292003    2.854650    0.103951    0.364351    -4.130895    0.013788    2.259115    -14.217454    0.669023    -3.310793    16.702173    10.967618    9.707776    -2.212938    2.190223    -1.597217    -3.807586    2.158009    0.042323    -2.076214    4.823350    -5.233815    -0.237466    5.267985    -2.075138    -3.756539    -8.539170    9.903422    0.000000    0.000000    0.000000    1.661417    7.128284    -0.022137    1.858294    1.787080    -2.101347    -2.892951    -8.517439    -0.985183    0.000000    0.000000    0.000000    
-19.905354    85.266663    39.370243    1.348021    1.046375    90.308136    -0.393037    -7.507885    -1.004514    -0.044478    -1.909134    -0.979481    -0.329787    19.256683    2.513948    2.739677    7.798597    2.814420    14.224212    0.575907    -11.517488    -17.544868    2.987666    8.280534    2.855719    0.097366    0.356898    -4.195980    0.006034    2.249698    -14.243876    0.658464    -3.339961    16.722830    10.968833    9.747208    -2.215776    2.155557    -1.605147    -3.849033    2.123526    0.030775    -2.077495    4.807152    -5.252884    -0.241820    5.275139    -2.030085    -3.777916    -8.526403    9.871245    0.000000    0.000000    0.000000    1.660581    7.115247    -0.022079    1.856902    1.793537    -2.132248    -2.884865    -8.508598    -0.955265    0.000000    0.000000    0.000000    
-19.916262    85.266373    39.370499    1.355614    1.046407    90.319397    -0.394973    -7.494661    -1.008984    -0.038586    -1.908967    -0.983739    -0.308438    19.251558    2.532568    2.692546    7.802752    2.830747    14.227550    0.577926    -11.494887    -17.553696    2.973742    8.260119    2.849718    0.110964    0.366962    -4.244829    0.019739    2.233545    -14.250057    0.651614    -3.336645    16.722834    10.978940    9.739411    -2.225312    2.118609    -1.591974    -3.863379    2.086291    0.043227    -2.073665    4.793546    -5.243368    -0.244260    5.299161    -2.095002    -3.767299    -8.538750    9.913148    0.000000    0.000000    0.000000    1.662316    7.113071    -0.032733    1.855224    1.801583    -2.132744    -2.875991    -8.509082    -0.956305    0.000000    0.000000    0.000000    
-19.927107    85.268280    39.369801    1.359240    1.049590    90.331970    -0.387090    -7.485443    -1.015380    -0.059341    -1.920128    -0.991070    -0.279285    19.294109    2.558820    2.650768    7.761008    2.856604    14.235870    0.612411    -11.501929    -17.566156    2.959363    8.276519    2.854307    0.099662    0.361529    -4.277744    0.007885    2.232843    -14.210866    0.662085    -3.326173    16.688471    10.965657    9.750513    -2.222879    2.118613    -1.604796    -3.868708    2.085718    0.053400    -2.078290    4.783610    -5.249258    -0.243346    5.306311    -2.049246    -3.778558    -8.521272    9.867105    0.000000    0.000000    0.000000    1.667208    7.106375    -0.048913    1.844662    1.798478    -2.238155    -2.871887    -8.505190    -0.843717    0.000000    0.000000    0.000000    
-19.939568    85.269073    39.370480    1.354444    1.048204    90.344978    -0.380463    -7.475870    -1.015705    -0.074346    -1.938118    -0.992104    -0.215703    19.305832    2.578454    2.570861    7.760631    2.872852    14.259422    0.620552    -11.493977    -17.593418    2.969404    8.261786    2.855817    0.077644    0.365680    -4.265900    -0.014535    2.250621    -14.198901    0.652557    -3.329758    16.687918    10.962195    9.740199    -2.232170    2.134461    -1.596087    -3.857518    2.101663    0.050858    -2.074280    4.762061    -5.261808    -0.244408    5.321961    -2.092145    -3.795336    -8.528456    9.910946    0.000000    0.000000    0.000000    1.663742    7.097607    -0.045153    1.859013    1.798684    -2.162148    -2.890791    -8.496925    -0.945659    0.000000    0.000000    0.000000    
-19.949741    85.270737    39.369415    1.360210    1.053806    90.349899    -0.392767    -7.472783    -1.011847    -0.066100    -1.925578    -0.987341    -0.185593    19.285761    2.585613    2.524998    7.793446    2.876998    14.277040    0.623703    -11.500110    -17.621832    2.961736    8.259342    2.845146    0.077742    0.371003    -4.216708    -0.014665    2.269301    -14.196431    0.655853    -3.343677    16.679712    10.979773    9.748513    -2.248454    2.128710    -1.592058    -3.834178    2.095487    0.060197    -2.079991    4.762759    -5.258395    -0.240037    5.317019    -2.084403    -3.814156    -8.510630    9.885707    0.000000    0.000000    0.000000    1.658415    7.095775    -0.058945    1.855586    1.804502    -2.148232    -2.870099    -8.496543    -0.946381    0.000000    0.000000    0.000000    
-19.962286    85.272888    39.369209    1.358328    1.051810    90.359283    -0.407708    -7.475517    -1.004562    -0.034318    -1.913639    -0.978470    -0.160429    19.305447    2.596989    2.466353    7.759159    2.885847    14.271521    0.608257    -11.509265    -17.644844    2.957831    8.242442    2.855726    0.076309    0.399457    -4.248423    -0.016551    2.255113    -14.216782    0.640091    -3.368165    16.681021    10.980163    9.741797    -2.245672    2.138516    -1.582333    -3.819600    2.105140    0.071758    -2.076245    4.747046    -5.262657    -0.242690    5.322663    -2.078598    -3.820519    -8.506932    9.874001    0.000000    0.000000    0.000000    1.660479    7.087350    -0.057752    1.856865    1.798281    -2.180821    -2.867283    -8.485426    -0.919576    0.000000    0.000000    0.000000    
-19.968443    85.269508    39.373692    1.369975    1.033331    90.353020    -0.387088    -7.456995    -0.996779    -0.040228    -1.931446    -0.972217    -0.134527    19.316628    2.609271    2.424382    7.782640    2.895689    14.274519    0.641046    -11.505481    -17.643625    2.946887    8.215440    2.860740    0.063783    0.421207    -4.257402    -0.029857    2.261585    -14.194723    0.651593    -3.361182    16.663315    11.003353    9.742466    -2.252506    2.115544    -1.585371    -3.810498    2.082130    0.068643    -2.046858    4.763577    -5.255276    -0.252763    5.308454    -2.105532    -3.819722    -8.520844    9.891143    0.000000    0.000000    0.000000    1.680676    7.107156    -0.016109    1.857492    1.775496    -2.163181    -2.871474    -8.472384    -0.966036    0.000000    0.000000    0.000000    
-19.981108    85.274216    39.371769    1.369844    1.047283    90.363312    -0.397624    -7.455382    -0.999876    -0.043910    -1.923727    -0.974684    -0.124442    19.333069    2.625747    2.383083    7.759132    2.910501    14.262142    0.636808    -11.476874    -17.637201    2.979394    8.184868    2.844582    0.085865    0.450598    -4.261316    -0.009832    2.271281    -14.207478    0.651804    -3.373480    16.670622    11.020158    9.758044    -2.262051    2.104677    -1.576951    -3.766790    2.071238    0.071859    -2.063445    4.754072    -5.275586    -0.250375    5.307569    -2.099606    -3.826962    -8.492328    9.906381    0.000000    0.000000    0.000000    1.662181    7.108113    -0.001785    1.866751    1.758895    -2.205603    -2.867940    -8.455722    -0.956836    0.000000    0.000000    0.000000    
-19.990952    85.271217    39.373085    1.371801    1.029767    90.361710    -0.359317    -7.450599    -0.990459    -0.087392    -1.929470    -0.968583    0.000770    19.421839    2.578019    2.188045    7.673106    2.851389    14.308645    0.650354    -11.468651    -17.655916    2.943673    8.148344    2.835301    0.136282    0.467053    -4.225802    0.040464    2.295705    -14.161102    0.666138    -3.378955    16.638493    11.017797    9.768570    -2.253292    2.086897    -1.575988    -3.767878    2.054381    0.048060    -2.038455    4.749039    -5.257105    -0.258931    5.312689    -2.124160    -3.824357    -8.520113    9.897346    0.000000    0.000000    0.000000    1.683048    7.101862    0.002538    1.862884    1.760372    -2.182599    -2.887668    -8.459055    -0.982635    0.000000    0.000000    0.000000    
-19.999929    85.271141    39.375599    1.372679    1.023458    90.369392    -0.338052    -7.448810    -1.002933    -0.109926    -1.930717    -0.982790    -0.017190    19.451611    2.614007    2.179238    7.646383    2.888141    14.305929    0.659588    -11.413185    -17.641993    2.953565    8.116998    2.819333    0.156008    0.473463    -4.189240    0.060824    2.287838    -14.165833    0.652629    -3.365605    16.589073    10.987402    9.832482    -2.117241    2.104425    -1.654463    -3.831809    2.069781    0.123536    -2.030270    4.743189    -5.252979    -0.255810    5.310227    -2.121929    -3.827828    -8.512811    9.891577    0.000000    0.000000    0.000000    1.693328    7.102883    0.005179    1.861376    1.747556    -2.217279    -2.884063    -8.445491    -0.960056    0.000000    0.000000    0.000000    
-20.014936    85.270622    39.374615    1.361684    1.026579    90.365067    -0.339681    -7.447393    -0.997531    -0.106744    -1.945831    -0.977194    0.015420    19.481573    2.623678    2.103511    7.628683    2.893706    14.290162    0.665291    -11.412358    -17.626982    2.942468    8.116411    2.835204    0.128038    0.478568    -4.445484    0.030652    2.204008    -14.211403    0.591814    -3.372425    16.645636    11.060403    9.827585    -2.146818    2.071249    -1.650806    -3.835930    2.037243    0.092510    -2.032325    4.724063    -5.260813    -0.259675    5.311972    -2.129312    -3.820281    -8.516655    9.904728    0.000000    0.000000    0.000000    1.687576    7.083436    0.026936    1.862320    1.741937    -2.231528    -2.888533    -8.437996    -0.956106    0.000000    0.000000    0.000000    
-20.024378    85.271683    39.375458    1.374271    1.021947    90.382591    -0.314922    -7.431965    -1.001430    -0.156453    -1.948696    -0.983657    0.031610    19.482540    2.629977    2.100379    7.646521    2.900182    14.347157    0.639278    -11.395448    -17.648962    2.916883    8.089728    2.812875    0.183520    0.496850    -4.495418    0.084675    2.211374    -14.179104    0.595507    -3.365480    16.643972    11.039072    9.821435    -2.144405    2.063501    -1.643385    -3.864679    2.029427    0.099125    -2.029289    4.726709    -5.262432    -0.252170    5.315405    -2.137810    -3.802086    -8.507738    9.897669    0.000000    0.000000    0.000000    1.693929    7.101750    0.034201    1.863565    1.724896    -2.265094    -2.874704    -8.422081    -0.946775    0.000000    0.000000    0.000000    
-20.035591    85.271561    39.376820    1.374307    1.017405    90.381035    -0.310707    -7.428046    -1.009141    -0.146724    -1.952115    -0.991490    0.023835    19.530195    2.656311    2.050088    7.596439    2.924425    14.314426    0.638857    -11.362924    -17.638018    2.916304    8.102510    2.838475    0.206666    0.447210    -4.496071    0.105497    2.292909    -14.182312    0.597282    -3.353896    16.640797    11.022257    9.841929    -2.150079    2.043999    -1.640536    -3.873751    2.010416    0.084328    -2.019432    4.718192    -5.265753    -0.264064    5.313583    -2.127093    -3.815158    -8.510633    9.899744    0.000000    0.000000    0.000000    1.699252    7.090434    0.005938    1.863921    1.732816    -2.242589    -2.884481    -8.424718    -0.943056    0.000000    0.000000    0.000000    
